<svg xmlns="http://www.w3.org/2000/svg" aria-hidden="true" style="position:absolute;width:0;height:0;overflow:hidden">
  <defs>
		<symbol id="icon-company-1" viewBox="0 0 145 32">
			<path d="M11.245 27.966c1.126 0 2.166-0.208 3.152-0.599 0.008 0.020 2.016 3.184 2.045 3.206-1.817 0.991-3.716 1.427-5.791 1.427-6.171 0-10.65-4.126-10.65-10.712 0-6.634 4.708-10.76 10.65-10.76 2.116 0 3.783 0.465 5.463 1.377-0.185 0.313-1.914 3.291-1.921 3.304-0.996-0.402-2.060-0.605-3.132-0.599-3.657 0-6.49 2.365-6.49 6.678 0 4.081 2.742 6.678 6.674 6.678zM26.808 10.528c6.079 0 10.467 4.36 10.467 10.76 0 6.353-4.388 10.712-10.467 10.712-6.032 0-10.42-4.358-10.42-10.712 0-6.399 4.388-10.76 10.42-10.76zM26.808 14.47c-3.381 0-5.85 2.644-5.85 6.817 0 4.128 2.468 6.771 5.852 6.771 3.474 0 5.896-2.643 5.896-6.771 0-4.173-2.422-6.817-5.897-6.817zM40.155 31.537v-20.546h4.524v20.546h-4.524zM39.56 4.683c0-1.576 1.327-2.827 2.834-2.827 1.509 0 2.833 1.251 2.833 2.828 0 1.624-1.324 2.922-2.833 2.922-1.508 0-2.834-1.299-2.834-2.922v-0.001zM48.626 12.291c2.833-1.113 6.309-1.763 9.278-1.763 5.165 0 8.456 1.994 8.456 7.791v13.218h-4.479v-12.8c0-2.968-1.828-4.035-4.343-4.035-1.6 0-3.198 0.232-4.388 0.604v16.232h-4.525v-19.246zM70.15 0h4.524v11.549c0.96-0.511 2.833-1.021 4.615-1.021 5.852 0 10.238 3.802 10.238 10.388 0 6.632-4.341 11.084-11.836 11.084-2.571-0.008-5.121-0.462-7.541-1.344v-30.656zM74.673 27.642c0.868 0.277 2.011 0.415 3.153 0.415 4.159 0 7.13-2.318 7.13-7.050 0-3.988-2.787-6.353-6.215-6.353-1.782 0-3.155 0.464-4.070 0.975l0.001 12.012zM102.598 17.762c0-2.226-1.647-3.245-3.886-3.245-2.331 0-4.159 0.695-5.849 1.669v-3.989c1.782-1.019 4.066-1.669 6.582-1.669 4.431 0 7.585 1.855 7.585 7.002v13.59c-1.919 0.509-4.659 0.836-6.945 0.836-5.257 0-9.096-1.624-9.096-6.261 0-4.173 3.518-6.214 9.369-6.214h2.239l0.002-1.718zM102.598 22.539h-1.92c-3.154 0-5.211 0.929-5.211 3.015 0 2.133 1.921 2.968 4.662 2.968 0.687 0 1.647-0.093 2.469-0.232v-5.751zM110.32 25.972c1.874 1.437 4.112 2.318 6.169 2.318 2.012 0 3.338-0.695 3.338-2.318 0-1.671-1.189-2.274-3.793-2.969-4.206-0.974-5.989-2.689-5.989-6.26 0-4.175 3.109-6.215 7.221-6.215 2.286 0 4.113 0.511 5.804 1.576v4.221c-1.782-1.297-3.518-2.087-5.666-2.087-1.966 0-3.017 0.974-3.017 2.319 0 1.344 0.867 2.040 3.199 2.688 4.618 1.021 6.628 2.786 6.628 6.495 0 4.313-3.246 6.26-7.632 6.26-2.377 0-4.753-0.648-6.261-1.669l-0.001-4.359zM130.409 22.308v0.093c0.274 3.663 3.38 5.657 6.534 5.657 2.789 0 4.801-0.649 6.81-1.994v4.037c-1.828 1.298-4.525 1.9-7.128 1.9-6.308 0-10.604-4.081-10.604-10.573 0-6.539 4.204-10.898 9.78-10.898 5.895 0 8.684 3.849 8.684 9.459v2.321l-14.076-0.001zM140.234 19.339c-0.090-3.201-1.644-4.962-4.569-4.962-2.606 0-4.526 1.856-5.119 4.963l9.688-0.001z"></path>
		</symbol>
		<symbol id="icon-company-2" viewBox="0 0 412 32">
			<path d="M105.033 24.333c2.439 0 4.676-1.067 6.234-2.667 0.339-0.4 1.084-1.133 1.017-1l5.218 5.533c-2.982 3.533-7.454 5.8-12.536 5.8-9.012 0-16.263-7.133-16.263-16s7.251-16 16.263-16c4.811 0 9.148 2.067 12.13 5.333l-5.218 5.533-1.22-1.2c-1.491-1.333-3.456-2.133-5.624-2.133-4.676 0-8.538 3.733-8.538 8.4 0 4.6 3.795 8.4 8.538 8.4zM305.748 31.467c2.439 0 4.133-1.667 4.133-4.067 0-2.333-1.695-3.933-4.133-4-2.372 0-4.067 1.667-4.067 4 0 2.4 1.695 4.067 4.067 4.067zM173 21.8c-1.559 1.6-3.796 2.667-6.235 2.667-4.744 0-8.539-3.8-8.539-8.4 0-4.667 3.863-8.4 8.539-8.4 2.168 0 4.133 0.8 5.624 2.133l1.22 1.2 5.285-5.667c-2.981-3.267-7.319-5.333-12.129-5.333-9.013 0-16.264 7.133-16.264 16s7.251 16 16.264 16c5.083 0 9.555-2.267 12.536-5.8l-5.217-5.533c0 0-0.745 0.733-1.084 1.133zM328.584 24.333c2.439 0 4.675-1.067 6.233-2.667 0.339-0.4 1.084-1.133 1.017-1l5.217 5.533c-2.981 3.533-7.453 5.8-12.536 5.8-9.013 0-16.264-7.133-16.264-16s7.251-16 16.264-16c4.811 0 9.148 2.067 12.129 5.333l-5.217 5.533-1.22-1.2c-1.491-1.333-3.456-2.133-5.624-2.133-4.676 0-8.539 3.733-8.539 8.4 0 4.6 3.795 8.4 8.539 8.4zM21.955 15.333c2.778-1.2 4.811-3.267 4.811-6.867v-0.067c0-2.133-0.745-3.733-2.033-4.933-1.83-1.867-4.54-2.8-8.47-2.8h-16.263v30.667h16.331c7.454 0 11.791-3.2 11.791-8.467v-0.067c0-4.2-2.372-6.267-6.167-7.467zM8.674 7.467h5.624c2.575 0 3.93 0.933 3.93 2.6v0.067c0 1.8-1.491 2.667-4.133 2.667h-5.421v-5.333zM19.516 21.733c0 1.8-1.491 2.8-4.133 2.8h-6.709v-5.667h6.573c2.914 0 4.201 1.067 4.201 2.733v0.133h0.068zM30.832 0.667h8.674v23.267h14.027v7.4h-22.701v-30.667zM203.153 12.133h-11.112v-11.467h-8.675v30.733l8.675-0.067v-11.667h11.112v11.667h8.675v-30.667h-8.675v11.467zM228.836 0.667h8.267l13.215 30.667h-9.216l-2.236-5.467h-11.927l-2.236 5.467h-9.012l13.145-30.667zM232.835 10.667l-3.456 8.667h6.912l-3.456-8.667zM262.853 0.667h-8.673v30.733h8.673v-30.733zM287.925 16.933v-16.2h8.675v30.667h-7.657l-13.349-16.867v16.867h-8.675v-30.733l8.132 0.067 12.875 16.2zM150.637 0.667h-10.232l-10.774 12.467v-12.467h-8.674v30.733h8.674v-7.933l3.185-3.467 8.742 11.4h10.3l-13.417-17.533 12.197-13.2zM54.211 16c0-8.867 7.251-16 16.263-16 8.945 0 16.263 7.133 16.263 16s-7.251 16-16.263 16c-9.013 0-16.263-7.133-16.263-16zM61.935 16c0 4.6 3.795 8.4 8.538 8.4s8.538-3.733 8.538-8.4c0-4.6-3.795-8.4-8.538-8.4-4.676 0-8.538 3.733-8.538 8.4zM358.060 0c-9.012 0-16.263 7.133-16.263 16s7.251 16 16.263 16c9.013 0 16.264-7.133 16.264-16s-7.251-16-16.264-16zM358.060 24.4c-4.743 0-8.537-3.8-8.537-8.4 0-4.667 3.863-8.4 8.537-8.4 4.744 0 8.539 3.8 8.539 8.4 0.068 4.667-3.795 8.4-8.539 8.4zM403.868 13.133l-6.233 15.067h-6.032l-6.233-15.067v18.133h-8.132v-30.6h9.893l7.523 16.933 7.521-16.933h9.825v30.6h-8.132v-18.133z"></path>
		</symbol>
		<symbol id="icon-company-3" viewBox="0 0 159 32">
			<path d="M9.739 13.446l6.185-6.212 6.187 6.218 3.597-3.617-9.784-9.834-9.784 9.832 3.599 3.614z"></path>
			<path d="M-0.001 16.001l3.598-3.615 3.598 3.615-3.598 3.615-3.598-3.615z"></path>
			<path d="M9.739 18.554l6.185 6.215 6.187-6.218 3.599 3.612-0.003 0.003-9.784 9.834-9.789-9.834 3.604-3.612z"></path>
			<path d="M24.646 16.002l3.598-3.616 3.598 3.616-3.598 3.615-3.598-3.615z"></path>
			<path d="M19.573 15.999l-3.649-3.67-3.655 3.67 0.005 0.008 3.65 3.665 3.649-3.672z"></path>
			<path d="M37.456 7.754h7.827c1.942 0 3.41 0.505 4.407 1.516 0.375 0.373 0.671 0.82 0.87 1.311s0.295 1.019 0.285 1.55v0.048c0.007 0.435-0.053 0.868-0.179 1.284-0.111 0.358-0.273 0.699-0.48 1.011-0.193 0.294-0.427 0.56-0.694 0.789-0.261 0.226-0.547 0.421-0.853 0.581 0.881 0.308 1.673 0.829 2.306 1.516 0.56 0.64 0.84 1.525 0.84 2.654v0.048c0.016 0.705-0.137 1.404-0.445 2.037-0.299 0.584-0.737 1.084-1.275 1.456-0.608 0.41-1.286 0.705-2 0.872-0.848 0.202-1.717 0.3-2.588 0.291h-8.021v-16.964zM44.498 14.613c0.677 0.033 1.351-0.114 1.954-0.425 0.235-0.138 0.427-0.34 0.554-0.582s0.184-0.515 0.165-0.788v-0.048c0.013-0.252-0.038-0.502-0.148-0.729s-0.274-0.422-0.478-0.568c-0.417-0.298-1.020-0.447-1.808-0.447h-3.662v3.586h3.423zM45.487 21.45c0.675 0.038 1.346-0.117 1.937-0.447 0.23-0.149 0.416-0.356 0.539-0.602s0.178-0.519 0.16-0.793v-0.048c0.009-0.261-0.046-0.519-0.159-0.754s-0.283-0.437-0.492-0.591c-0.433-0.337-1.132-0.506-2.098-0.506h-4.298v3.741h4.412z"></path>
			<path d="M56.448 7.754h3.715v16.969h-3.715v-16.969z"></path>
			<path d="M65.784 7.754h3.426l7.918 10.443v-10.443h3.667v16.969h-3.162l-8.177-10.787v10.787h-3.672v-16.969z"></path>
			<path d="M92.042 7.633h3.421l7.236 17.091h-3.878l-1.545-3.806h-7.141l-1.544 3.806h-3.788l7.238-17.091zM95.951 17.621l-2.249-5.505-2.238 5.505h4.487z"></path>
			<path d="M106.715 7.754h3.426l7.913 10.443v-10.443h3.667v16.969h-3.162l-8.176-10.787v10.787h-3.668v-16.969z"></path>
			<path d="M135.091 25.022c-1.184 0.010-2.358-0.22-3.451-0.677-1.029-0.427-1.963-1.057-2.746-1.852s-1.4-1.74-1.815-2.778c-0.437-1.086-0.658-2.248-0.651-3.42v-0.048c-0.019-2.309 0.865-4.534 2.462-6.195 0.786-0.811 1.726-1.454 2.766-1.891 1.131-0.471 2.345-0.705 3.569-0.69 0.724-0.005 1.447 0.060 2.158 0.195 0.609 0.116 1.203 0.294 1.776 0.533 0.519 0.22 1.012 0.496 1.471 0.824 0.448 0.32 0.869 0.677 1.258 1.067l-2.362 2.74c-0.604-0.559-1.281-1.033-2.012-1.408-0.719-0.345-1.508-0.518-2.304-0.505-0.663-0.007-1.32 0.128-1.927 0.395s-1.15 0.662-1.595 1.157c-0.44 0.494-0.784 1.065-1.016 1.686-0.242 0.656-0.364 1.35-0.36 2.050v0.048c-0.002 0.698 0.12 1.392 0.36 2.047 0.229 0.623 0.57 1.198 1.006 1.696 0.44 0.501 0.983 0.901 1.591 1.173s1.266 0.41 1.931 0.404c0.847 0.027 1.687-0.156 2.447-0.533 0.724-0.396 1.392-0.886 1.989-1.456l2.365 2.401c-0.418 0.455-0.869 0.878-1.351 1.264-0.473 0.376-0.987 0.697-1.531 0.958-0.581 0.275-1.193 0.477-1.821 0.604-0.727 0.146-1.467 0.218-2.209 0.212z"></path>
			<path d="M146.387 7.754h12.709v3.321h-9.054v3.442h7.973v3.321h-7.96v3.564h9.168v3.321h-12.827l-0.008-16.969z"></path>
		</symbol>
		<symbol id="icon-company-4" viewBox="0 0 196 32">
			<path d="M16.701 0.587h18.354c-0.011 0.238-0.095 0.468-0.241 0.659-0.621 1.046-1.181 2.134-1.791 3.18-0.864 1.502-1.671 3.030-2.549 4.526-0.556 1.076-1.184 2.119-1.777 3.177-3.566 0-7.133 0-10.699 0-0.186 0-0.371 0.009-0.558 0.020-0.155 0.402-0.413 0.755-0.621 1.133-0.272 0.433-0.492 0.895-0.761 1.328-0.284 0.582-0.677 1.104-0.963 1.684-0.59 0.983-1.142 1.982-1.72 2.976-0.603 1.016-1.192 2.047-1.768 3.092-0.244 0.37-0.468 0.752-0.673 1.145-1.207 2.061-2.375 4.14-3.583 6.2-0.103 0.221-0.238 0.427-0.401 0.61-2.066-0.014-4.132 0-6.198 0-0.254 0.005-0.507 0.040-0.753 0.104 0-0.561 0.382-1.011 0.64-1.482 0.311-0.633 0.725-1.22 1.038-1.854 2.476-4.347 4.926-8.71 7.394-13.061 0.559-0.945 1.039-1.91 1.601-2.837 0.702-1.22 1.356-2.466 2.088-3.672 0.233-0.505 0.547-0.966 0.803-1.459 0.91-1.59 1.803-3.189 2.711-4.779 0.108-0.248 0.252-0.48 0.427-0.688z"></path>
			<path d="M37.969 6.988c1.222-2.096 2.403-4.215 3.642-6.302h6.63c0.097 0.005 0.192 0.020 0.286 0.044-0.221 0.328-0.405 0.675-0.6 1.017-1.599 2.816-3.193 5.634-4.783 8.453-0.668 1.148-1.289 2.322-1.966 3.463l-0.067 0.023-0.012 0.143c-3.117 5.488-6.224 10.98-9.32 16.475-6.086 0.006-12.172 0.006-18.259 0 0.346-0.71 0.757-1.389 1.142-2.079 1.734-3.128 3.512-6.229 5.221-9.357 3.739-0.006 7.479-0.006 11.218 0 2.31-3.948 4.57-7.927 6.863-11.881h0.006z"></path>
			<path d="M106.389 0.606v30.061h5.308v-21.139l9.682 13.922 9.604-14.253v21.469h5.462v-30.061h-5.876l-9.152 13.876-9.255-13.876h-5.774z"></path>
			<path d="M81.561 8.358h3.469v22.561h-3.469v-22.561z"></path>
			<path d="M81.263 0h4.065v3.785h-4.065v-3.785z"></path>
			<path d="M91.658 1.893h3.624v6.465h7.145v3.151h-7.145v13.402c-0.006 0.516 0.116 1.027 0.356 1.486 0.614 1.143 2.28 2.5 6.79 0.915v2.921c0 0-4.116 2.287-7.844 0.204 0 0-1.852-0.771-2.63-3.375-0.202-0.697-0.302-1.42-0.295-2.145v-13.459l-3.055 0.050v-3.151h3.080l-0.025-6.465z"></path>
			<path d="M142.037 0.606v30.263h23.040v-4.878h-17.422v-8.029h15.352v-4.802h-15.379v-7.646h17.269v-4.908h-22.86z"></path>
			<path d="M167.24 0.606h6.562l7.533 10.625 7.475-10.625h6.563l-10.718 14.759 11.385 15.478h-6.912l-7.767-11.305-8.142 11.331h-6.562l11.222-15.37-10.639-14.893z"></path>
			<path d="M70.946 15.167c0 0 5.075-1.88 4.764-7.291 0 0-0.042-5.204-6.013-6.811-0.993-0.261-2.017-0.39-3.045-0.384h-14.32l0.039 30.061h15.417c0 0 9.022-0.191 9.657-8.079 0 0 0.646-5.514-6.499-7.495zM56.034 3.785h9.14c7.17-0.024 6.964 4.93 6.964 4.93 0.107 5.652-6.473 5.538-6.473 5.538h-9.631v-10.468zM67.218 27.565h-11.184v-10.466h10.693c7.17-0.026 6.964 4.928 6.964 4.928 0.107 5.652-6.473 5.538-6.473 5.538z"></path>
		</symbol>
    <symbol id="icon-facebook" viewBox="0 0 32 32">
      <path d="M18.68 32V17.427h4.914l.73-5.706h-5.645V8.087c0-1.646.459-2.774 2.82-2.774h2.993V.226A39.639 39.639 0 0 0 20.107 0c-4.344 0-7.326 2.653-7.326 7.523v4.187H7.899v5.706h4.893V32h5.886z"/>
    </symbol>
    <symbol id="icon-google" viewBox="0 0 32 32">
      <path d="M2.37 8.533c0 2.529.858 4.354 2.549 5.425 1.386.88 2.993 1.012 3.829 1.012.203 0 .366-.01.48-.017 0 0-.265 1.7 1.015 3.379h-.058c-2.217 0-9.449.455-9.449 6.309 0 5.952 6.642 6.255 7.975 6.255.105 0 .167-.003.167-.003.014 0 .108.003.272.003.855 0 3.065-.105 5.118-1.088 2.663-1.27 4.013-3.485 4.013-6.577 0-2.986-2.057-4.763-3.559-6.064-.917-.794-1.71-1.478-1.71-2.143 0-.677.58-1.187 1.311-1.832 1.185-1.041 2.303-2.526 2.303-5.332 0-2.466-.325-4.124-2.329-5.175.208-.105.948-.181 1.312-.232 1.085-.146 2.673-.311 2.673-1.183v-.168h-7.911c-.079.003-8.001.291-8.001 7.43zM15.141 23.79c.151 2.38-1.918 4.136-5.026 4.357-3.157.229-5.754-1.17-5.905-3.548-.074-1.144.437-2.262 1.436-3.154 1.013-.902 2.405-1.461 3.919-1.571.179-.01.356-.02.533-.02 2.923.002 4.901 1.691 5.044 3.936zM13.075 6.903c.776 2.688-.396 5.495-2.264 6.014a2.455 2.455 0 0 1-.661.088c-1.71 0-3.404-1.703-4.034-4.051-.351-1.314-.322-2.468.081-3.575.394-1.092 1.106-1.825 2.001-2.074.215-.059.437-.09.662-.09 2.064 0 3.392.843 4.214 3.687zm13.397 5.711V7.536h-3.44v5.078h-5.161V16h5.161v5.078h3.44V16h5.161v-3.386h-5.161z"/>
    </symbol>
    <symbol id="icon-like" viewBox="0 0 32 32">
      <path d="M23.2 1.143c-2.784 0-5.456 1.296-7.2 3.344-1.744-2.048-4.416-3.344-7.2-3.344-4.928 0-8.8 3.872-8.8 8.8 0 6.048 5.44 10.976 13.68 18.464L16 30.503l2.32-2.112C26.56 20.919 32 15.991 32 9.943c0-4.928-3.872-8.8-8.8-8.8zm-7.04 24.88-.16.16-.16-.16C8.224 19.127 3.2 14.567 3.2 9.943c0-3.2 2.4-5.6 5.6-5.6 2.464 0 4.864 1.584 5.712 3.776h2.992c.832-2.192 3.232-3.776 5.696-3.776 3.2 0 5.6 2.4 5.6 5.6 0 4.624-5.024 9.184-12.64 16.08z"/>
    </symbol>
    <symbol id="icon-twitter" viewBox="0 0 32 32">
      <path d="M26.711 10.663c.017.233.017.465.017.697 0 7.1-5.404 15.281-15.28 15.281-3.043 0-5.869-.881-8.248-2.412.432.049.848.067 1.297.067a10.755 10.755 0 0 0 6.668-2.295 5.379 5.379 0 0 1-5.023-3.724c.332.049.665.083 1.015.083.481 0 .965-.067 1.415-.183a5.371 5.371 0 0 1-4.307-5.271v-.067a5.412 5.412 0 0 0 2.427.681 5.37 5.37 0 0 1-1.664-7.181 15.286 15.286 0 0 0 11.074 5.62 6.082 6.082 0 0 1-.133-1.231 5.374 5.374 0 0 1 1.572-3.799 5.369 5.369 0 0 1 3.799-1.572c1.547 0 2.943.648 3.924 1.696a10.601 10.601 0 0 0 3.408-1.297 5.362 5.362 0 0 1-2.361 2.96 10.774 10.774 0 0 0 3.092-.832 11.51 11.51 0 0 1-2.692 2.777z"/>
    </symbol>
    <symbol id="icon-works-1" viewBox="0 0 32 32">
      <path d="M28.445 13.333h-.889V8a.887.887 0 0 0-.889-.889H5.334a.886.886 0 0 1-.889-.728v-.32a.886.886 0 0 1 .889-.728h20.96a.887.887 0 0 0 .629-1.518.888.888 0 0 0-.629-.26H5.334a2.668 2.668 0 0 0-2.667 2.667 2.847 2.847 0 0 0 0 .32v18.284a3.654 3.654 0 0 0 2.275 3.351c.444.18.918.271 1.397.267h20.329a.887.887 0 0 0 .889-.889v-5.333h.889a.887.887 0 0 0 .889-.889v-7.111a.887.887 0 0 0-.889-.889zm-2.667 13.333H6.338a1.876 1.876 0 0 1-1.893-1.84V8.782c.289.084.589.12.889.107h20.444v4.444h-6.222a4.444 4.444 0 0 0-3.143 7.588 4.446 4.446 0 0 0 3.143 1.302h6.222v4.444zm1.778-6.222h-8a2.668 2.668 0 0 1 0-5.334h8v5.333z"/>
      <path d="M20.453 19.111a1.333 1.333 0 1 0 0-2.667 1.333 1.333 0 0 0 0 2.667z"/>
    </symbol>
    <symbol id="icon-works-2" viewBox="0 0 32 32">
      <path d="M5 7a.997.997 0 0 1-1-1 .997.997 0 0 1 1-1h22a.997.997 0 0 1 1 1 .997.997 0 0 1-1 1H5zm4-4a.997.997 0 0 1-1-1 .997.997 0 0 1 1-1h14a.997.997 0 0 1 1 1 .997.997 0 0 1-1 1H9zM0 26a3.004 3.004 0 0 0 3 3h26a3.004 3.004 0 0 0 3-3V12a3.004 3.004 0 0 0-3-3H3a3.004 3.004 0 0 0-3 3v14zm3 1a.997.997 0 0 1-1-1V12a.997.997 0 0 1 1-1h26a.997.997 0 0 1 1 1v14a.997.997 0 0 1-1 1H3z"/>
    </symbol>
    <symbol id="icon-works-3" viewBox="0 0 32 32">
      <path d="m14.755 10.672.245-.007h10a4.334 4.334 0 0 1 4.327 4.087l.007.247v10a4.333 4.333 0 0 1-4.088 4.326l-.245.007h-10a4.333 4.333 0 0 1-4.326-4.088L10.668 25V15a4.333 4.333 0 0 1 4.088-4.326v-.001zM25 12.665H15a2.337 2.337 0 0 0-2.325 2.141l-.008.192v10a2.333 2.333 0 0 0 2.142 2.325l.191.008h10a2.333 2.333 0 0 0 2.325-2.142l.008-.191v-10A2.336 2.336 0 0 0 25 12.665zm-5 2.002a.997.997 0 0 1 1 1v3.331h3.333a.997.997 0 0 1 1 1 .997.997 0 0 1-1 1H21v3.336a.997.997 0 0 1-1 1 .997.997 0 0 1-1-1v-3.336h-3.333a.997.997 0 0 1-1-1 .997.997 0 0 1 1-1H19v-3.331a.997.997 0 0 1 1-1zm.776-9.023.069.236.924 3.451h-2.071l-.784-2.933a2.322 2.322 0 0 0-1.088-1.418 2.327 2.327 0 0 0-1.772-.233L6.395 7.336a2.332 2.332 0 0 0-1.693 2.66l.043.197 2.589 9.659a2.332 2.332 0 0 0 1.997 1.716v2.008a4.34 4.34 0 0 1-3.86-2.971l-.069-.235-2.588-9.66a4.33 4.33 0 0 1 2.827-5.238l.237-.069 9.659-2.588a4.33 4.33 0 0 1 5.238 2.827v.001z"/>
    </symbol>
    <symbol id="icon-works-4" viewBox="0 0 32 32">
      <path stroke-linejoin="round" stroke-width="2" d="M27.333 9.333 16 2.666 4.667 9.333v13.333L16 29.333l11.333-6.667V9.333z"/>
      <path stroke-linecap="round" stroke-linejoin="round" stroke-width="2" d="M16 14.667V20M21.333 12v8M10.667 17.333V20"/>
    </symbol>
    <symbol id="icon-youtube" viewBox="0 0 32 32">
      <path d="M28.987 8.626a3.345 3.345 0 0 0-2.349-2.354c-2.088-.573-10.441-.583-10.441-.583s-8.352-.009-10.441.539a3.416 3.416 0 0 0-2.354 2.371c-.551 2.088-.556 6.419-.556 6.419s-.005 4.352.541 6.419a3.341 3.341 0 0 0 2.351 2.353c2.109.573 10.44.583 10.44.583s8.353.009 10.441-.537a3.356 3.356 0 0 0 2.356-2.35c.552-2.087.556-6.416.556-6.416s.027-4.353-.543-6.441zM13.524 19.029l.007-8 6.943 4.007-6.949 3.993z"/>
    </symbol>
		<symbol id="icon-vector1" viewBox="0 0 32 32">
			<path d="M16 32c-4.243 0-8.313-1.686-11.314-4.686s-4.686-7.070-4.686-11.314c0-4.243 1.686-8.313 4.686-11.314s7.070-4.686 11.314-4.686c4.243 0 8.313 1.686 11.314 4.686s4.686 7.070 4.686 11.314c0 4.243-1.686 8.313-4.686 11.314s-7.070 4.686-11.314 4.686zM23 17c0.265 0 0.52-0.105 0.707-0.293s0.293-0.442 0.293-0.707-0.105-0.52-0.293-0.707c-0.188-0.188-0.442-0.293-0.707-0.293h-11.586l4.294-4.292c0.188-0.188 0.293-0.443 0.293-0.708s-0.105-0.52-0.293-0.708c-0.188-0.188-0.442-0.293-0.708-0.293s-0.52 0.105-0.708 0.293l-6 6c-0.093 0.093-0.167 0.203-0.217 0.325s-0.076 0.252-0.076 0.383 0.026 0.262 0.076 0.383c0.050 0.121 0.124 0.232 0.217 0.325l6 6c0.188 0.188 0.443 0.293 0.708 0.293s0.52-0.105 0.708-0.293c0.188-0.188 0.293-0.442 0.293-0.708s-0.105-0.52-0.293-0.708l-4.294-4.292h11.586z"></path>
		</symbol>
		<symbol id="icon-vector2" viewBox="0 0 32 32">
			<path d="M16 0c4.243 0 8.313 1.686 11.314 4.686s4.686 7.070 4.686 11.314c0 4.243-1.686 8.313-4.686 11.314s-7.070 4.686-11.314 4.686c-4.243 0-8.313-1.686-11.314-4.686s-4.686-7.070-4.686-11.314c0-4.243 1.686-8.313 4.686-11.314s7.070-4.686 11.314-4.686zM9 15c-0.265 0-0.52 0.105-0.707 0.293s-0.293 0.442-0.293 0.707 0.105 0.52 0.293 0.707c0.188 0.188 0.442 0.293 0.707 0.293h11.586l-4.294 4.292c-0.188 0.188-0.293 0.442-0.293 0.708s0.105 0.52 0.293 0.708c0.188 0.188 0.442 0.293 0.708 0.293s0.52-0.105 0.708-0.293l6-6c0.093-0.093 0.167-0.203 0.217-0.325s0.076-0.252 0.076-0.383-0.026-0.262-0.076-0.383c-0.050-0.121-0.124-0.232-0.217-0.325l-6-6c-0.188-0.188-0.442-0.293-0.708-0.293s-0.52 0.105-0.708 0.293c-0.188 0.188-0.293 0.443-0.293 0.708s0.105 0.52 0.293 0.708l4.294 4.292h-11.586z"></path>
		</symbol>
  </defs>
</svg>
