<svg xmlns="http://www.w3.org/2000/svg" aria-hidden="true" style="position:absolute;width:0;height:0;overflow:hidden">
  <defs>
    <symbol id="icon-company-1" viewBox="0 0 32 32">
      <path d="M2.49 18.65c.249 0 .48-.046.698-.133.002.004.446.705.453.71a2.612 2.612 0 0 1-1.283.316c-1.367 0-2.359-.914-2.359-2.372 0-1.469 1.043-2.383 2.359-2.383.469 0 .838.103 1.21.305l-.425.732a1.834 1.834 0 0 0-.694-.133c-.81 0-1.437.524-1.437 1.479 0 .904.607 1.479 1.478 1.479zm3.447-3.862c1.346 0 2.318.966 2.318 2.383 0 1.407-.972 2.372-2.318 2.372-1.336 0-2.308-.965-2.308-2.372 0-1.417.972-2.383 2.308-2.383zm0 .873c-.749 0-1.296.586-1.296 1.51 0 .914.547 1.5 1.296 1.5.769 0 1.306-.585 1.306-1.5 0-.924-.537-1.51-1.306-1.51zm2.956 3.78v-4.55h1.002v4.55H8.893zm-.131-5.947c0-.349.294-.626.628-.626s.627.277.627.626c0 .36-.293.647-.627.647s-.628-.288-.628-.647zm2.008 1.684a5.94 5.94 0 0 1 2.055-.39c1.144 0 1.873.442 1.873 1.726v2.928h-.992v-2.835c0-.657-.405-.894-.962-.894-.354 0-.708.051-.972.134v3.595H10.77v-4.263zm4.767-2.722h1.002v2.558c.213-.113.627-.226 1.022-.226 1.296 0 2.267.842 2.267 2.301 0 1.469-.961 2.455-2.621 2.455a4.912 4.912 0 0 1-1.67-.298v-6.79zm1.001 6.122c.192.061.445.092.698.092.921 0 1.579-.513 1.579-1.561 0-.883-.617-1.407-1.377-1.407-.395 0-.699.103-.901.216v2.66zm6.185-2.188c0-.493-.365-.719-.861-.719-.516 0-.921.154-1.296.37v-.883c.395-.226.901-.37 1.458-.37.981 0 1.68.411 1.68 1.551v3.01a6.58 6.58 0 0 1-1.538.185c-1.164 0-2.015-.36-2.015-1.387 0-.924.779-1.376 2.075-1.376h.496v-.38zm0 1.058h-.425c-.699 0-1.154.206-1.154.668 0 .472.425.657 1.032.657.152 0 .365-.021.547-.051v-1.274zm1.71.761c.415.318.911.513 1.366.513.446 0 .739-.154.739-.513 0-.37-.263-.504-.84-.658-.931-.216-1.326-.596-1.326-1.387 0-.925.689-1.376 1.599-1.376.506 0 .911.113 1.285.349v.935c-.395-.287-.779-.462-1.255-.462-.435 0-.668.216-.668.514s.192.452.709.595c1.023.226 1.468.617 1.468 1.438 0 .955-.719 1.387-1.69 1.387-.526 0-1.053-.143-1.387-.37v-.965zm4.449-.812v.021c.061.811.749 1.253 1.447 1.253.618 0 1.063-.144 1.508-.442v.894c-.405.287-1.002.421-1.579.421-1.397 0-2.348-.904-2.348-2.342 0-1.448.931-2.414 2.166-2.414 1.306 0 1.923.852 1.923 2.095v.514h-3.118zm2.176-.657c-.02-.709-.364-1.099-1.012-1.099-.577 0-1.002.411-1.134 1.099h2.146z"/>
    </symbol>
    <symbol id="icon-company-2" viewBox="0 0 32 32">
      <path d="M8.158 16.647a.682.682 0 0 0 .484-.207.492.492 0 0 1 .079-.078l.405.43a1.27 1.27 0 0 1-.974.451c-.7 0-1.263-.554-1.263-1.243s.563-1.243 1.263-1.243c.374 0 .711.161.942.414l-.405.43-.095-.093a.65.65 0 0 0-.437-.166.658.658 0 0 0-.663.652c0 .357.295.652.663.652zm15.589.554c.189 0 .321-.129.321-.316 0-.181-.132-.305-.321-.311a.302.302 0 0 0-.316.311c0 .186.132.316.316.316zm-10.31-.75a.682.682 0 0 1-.484.207.658.658 0 0 1-.663-.652c0-.362.3-.652.663-.652.168 0 .321.062.437.166l.095.093.411-.44a1.272 1.272 0 0 0-.942-.414c-.7 0-1.263.554-1.263 1.243s.563 1.243 1.263 1.243c.395 0 .742-.176.974-.451l-.405-.43s-.058.057-.084.088zm12.084.196a.682.682 0 0 0 .484-.207.492.492 0 0 1 .079-.078l.405.43a1.27 1.27 0 0 1-.974.451c-.7 0-1.263-.554-1.263-1.243s.563-1.243 1.263-1.243c.374 0 .711.161.942.414l-.405.43-.095-.093a.65.65 0 0 0-.437-.166.658.658 0 0 0-.663.652c0 .357.295.652.663.652zm-23.816-.699c.216-.093.374-.254.374-.533v-.005a.497.497 0 0 0-.158-.383c-.142-.145-.353-.217-.658-.217H0v2.382h1.268c.579 0 .916-.249.916-.658v-.005c0-.326-.184-.487-.479-.58zm-1.031-.611h.437c.2 0 .305.072.305.202v.005c0 .14-.116.207-.321.207H.674v-.414zm.842 1.108c0 .14-.116.217-.321.217H.674v-.44h.511c.226 0 .326.083.326.212v.01h.005zm.879-1.636h.674v1.807h1.089v.575H2.395v-2.382zm13.384.891h-.863v-.891h-.674v2.387l.674-.005v-.906h.863v.906h.674v-2.382h-.674v.891zm1.995-.891h.642l1.026 2.382h-.716l-.174-.425h-.926l-.174.425h-.7l1.021-2.382zm.31.777-.268.673h.537l-.268-.673zm2.332-.777h-.674v2.387h.674v-2.387zm1.947 1.264v-1.258h.674v2.382h-.595l-1.037-1.31v1.31h-.674V14.81l.632.005 1 1.258zM11.7 14.809h-.795l-.837.968v-.968h-.674v2.387h.674v-.616l.247-.269.679.885h.8l-1.042-1.362.947-1.025zM4.211 16a1.25 1.25 0 0 1 1.263-1.243c.695 0 1.263.554 1.263 1.243s-.563 1.243-1.263 1.243A1.25 1.25 0 0 1 4.211 16zm.6 0c0 .357.295.652.663.652s.663-.29.663-.652a.658.658 0 0 0-.663-.652.658.658 0 0 0-.663.652zm23-1.243c-.7 0-1.263.554-1.263 1.243s.563 1.243 1.263 1.243 1.263-.554 1.263-1.243-.563-1.243-1.263-1.243zm0 1.895a.658.658 0 0 1-.663-.652c0-.362.3-.652.663-.652.368 0 .663.295.663.652a.652.652 0 0 1-.663.652zm3.557-.875-.484 1.17h-.468l-.484-1.17v1.408H29.3v-2.377h.768l.584 1.315.584-1.315h.763v2.377h-.632v-1.408z"/>
    </symbol>
    <symbol id="icon-company-3" viewBox="0 0 32 32">
      <path d="M1.957 15.487 3.2 14.238l1.244 1.25.723-.727-1.966-1.976-1.966 1.976.723.726zM0 16l.723-.727.723.727-.723.727L0 16zM1.957 16.513 3.2 17.762l1.244-1.25.723.726-1.966 1.977-1.967-1.977.724-.726zM4.953 16l.723-.727.723.727-.723.727L4.953 16z"/>
      <path d="m3.934 16-.733-.738-.735.738.001.002.734.737.733-.738zM7.528 14.343h1.573c.39 0 .685.102.886.305a.796.796 0 0 1 .232.575v.01a.774.774 0 0 1-.272.619.941.941 0 0 1-.171.117c.177.062.336.167.464.305.113.129.169.306.169.533v.01a.803.803 0 0 1-.345.702 1.203 1.203 0 0 1-.402.175c-.17.041-.345.06-.52.058H7.53v-3.409zm1.415 1.378a.776.776 0 0 0 .393-.085.29.29 0 0 0 .144-.275v-.01a.304.304 0 0 0-.126-.26c-.084-.06-.205-.09-.363-.09h-.736v.721h.688zm.199 1.374a.712.712 0 0 0 .389-.09.307.307 0 0 0 .14-.28v-.01a.316.316 0 0 0-.131-.27c-.087-.068-.227-.102-.422-.102h-.864v.752h.887zM11.345 14.343h.747v3.41h-.747v-3.41zM13.221 14.343h.688l1.591 2.099v-2.099h.737v3.411h-.635l-1.643-2.168v2.168h-.738v-3.41zM18.499 14.318h.688l1.454 3.435h-.779l-.31-.765h-1.435l-.31.765h-.761l1.455-3.435zm.785 2.008-.452-1.106-.45 1.106h.902zM21.448 14.343h.688l1.59 2.099v-2.099h.737v3.411h-.635l-1.643-2.168v2.168h-.737v-3.41zM27.151 17.813a1.76 1.76 0 0 1-.694-.136 1.67 1.67 0 0 1-.917-.93 1.816 1.816 0 0 1-.131-.687v-.01a1.775 1.775 0 0 1 .495-1.245c.158-.163.347-.292.556-.38a1.8 1.8 0 0 1 .717-.139c.146-.001.291.012.434.039.122.023.242.059.357.107.104.044.203.1.296.166.09.064.175.136.253.214l-.475.551a1.802 1.802 0 0 0-.404-.283 1.043 1.043 0 0 0-.85-.023.93.93 0 0 0-.32.232 1.066 1.066 0 0 0-.204.339 1.157 1.157 0 0 0-.072.412v.01c0 .14.024.28.072.411.046.125.114.241.202.341a.945.945 0 0 0 .708.317c.17.005.339-.031.492-.107.145-.08.28-.178.4-.293l.475.483a2.516 2.516 0 0 1-.272.254 1.588 1.588 0 0 1-.674.314 2.206 2.206 0 0 1-.444.043zM29.421 14.343h2.554v.667h-1.82v.692h1.602v.667h-1.6v.716h1.842v.667h-2.578l-.002-3.41z"/>
    </symbol>
    <symbol id="icon-company-4" viewBox="0 0 32 32">
      <path d="M2.721 13.489h2.99a.197.197 0 0 1-.039.107c-.101.17-.192.348-.292.518-.141.245-.272.494-.415.737-.091.175-.193.345-.29.518H2.932l-.091.003c-.025.066-.067.123-.101.185-.044.071-.08.146-.124.216-.046.095-.11.18-.157.274-.096.16-.186.323-.28.485-.098.166-.194.333-.288.504-.04.06-.076.123-.11.186-.197.336-.387.675-.584 1.01a.413.413 0 0 1-.065.099c-.337-.002-.673 0-1.01 0a.514.514 0 0 0-.123.017c0-.091.062-.165.104-.241.051-.103.118-.199.169-.302.403-.708.802-1.419 1.205-2.128.091-.154.169-.311.261-.462.114-.199.221-.402.34-.598.038-.082.089-.157.131-.238l.442-.779a.467.467 0 0 1 .07-.112z"/>
      <path d="M6.186 14.532c.199-.341.391-.687.593-1.027h1.08a.254.254 0 0 1 .047.007c-.036.053-.066.11-.098.166-.261.459-.52.918-.779 1.377-.109.187-.21.378-.32.564l-.011.004-.002.023a797.53 797.53 0 0 0-1.518 2.684H2.203c.056-.116.123-.226.186-.339.282-.51.572-1.015.851-1.524a556.93 556.93 0 0 1 1.828 0c.376-.643.745-1.291 1.118-1.936h.001zM17.333 13.492v4.898h.865v-3.444l1.577 2.268 1.565-2.322v3.498h.89v-4.898h-.957l-1.491 2.261-1.508-2.261h-.941zM13.288 14.755h.565v3.676h-.565v-3.676zM13.24 13.393h.662v.617h-.662v-.617zM14.933 13.702h.59v1.053h1.164v.513h-1.164v2.183a.511.511 0 0 0 .058.242c.1.186.371.407 1.106.149v.476s-.671.373-1.278.033c0 0-.302-.126-.428-.55a1.215 1.215 0 0 1-.048-.349v-2.193l-.498.008v-.513h.502l-.004-1.053zM23.141 13.492v4.931h3.754v-.795h-2.838V16.32h2.501v-.782h-2.506v-1.246h2.813v-.8h-3.724zM27.247 13.492h1.069l1.227 1.731 1.218-1.731h1.069l-1.746 2.405 1.855 2.522h-1.126l-1.265-1.842-1.327 1.846h-1.069l1.828-2.504-1.733-2.426zM11.559 15.864s.827-.306.776-1.188c0 0-.007-.848-.98-1.11a1.89 1.89 0 0 0-.496-.063H8.526l.006 4.898h2.512s1.47-.031 1.573-1.316c0 0 .105-.898-1.059-1.221zm-2.43-1.854h1.489c1.168-.004 1.135.803 1.135.803.017.921-1.055.902-1.055.902H9.129V14.01zm1.822 3.874H9.129v-1.705h1.742c1.168-.004 1.134.803 1.134.803.017.921-1.055.902-1.055.902z"/>
    </symbol>
    <symbol id="icon-facebook" viewBox="0 0 32 32">
      <path d="M18.68 32V17.427h4.914l.73-5.706h-5.645V8.087c0-1.646.459-2.774 2.82-2.774h2.993V.226A39.639 39.639 0 0 0 20.107 0c-4.344 0-7.326 2.653-7.326 7.523v4.187H7.899v5.706h4.893V32h5.886z"/>
    </symbol>
    <symbol id="icon-google" viewBox="0 0 32 32">
      <path d="M2.37 8.533c0 2.529.858 4.354 2.549 5.425 1.386.88 2.993 1.012 3.829 1.012.203 0 .366-.01.48-.017 0 0-.265 1.7 1.015 3.379h-.058c-2.217 0-9.449.455-9.449 6.309 0 5.952 6.642 6.255 7.975 6.255.105 0 .167-.003.167-.003.014 0 .108.003.272.003.855 0 3.065-.105 5.118-1.088 2.663-1.27 4.013-3.485 4.013-6.577 0-2.986-2.057-4.763-3.559-6.064-.917-.794-1.71-1.478-1.71-2.143 0-.677.58-1.187 1.311-1.832 1.185-1.041 2.303-2.526 2.303-5.332 0-2.466-.325-4.124-2.329-5.175.208-.105.948-.181 1.312-.232 1.085-.146 2.673-.311 2.673-1.183v-.168h-7.911c-.079.003-8.001.291-8.001 7.43zM15.141 23.79c.151 2.38-1.918 4.136-5.026 4.357-3.157.229-5.754-1.17-5.905-3.548-.074-1.144.437-2.262 1.436-3.154 1.013-.902 2.405-1.461 3.919-1.571.179-.01.356-.02.533-.02 2.923.002 4.901 1.691 5.044 3.936zM13.075 6.903c.776 2.688-.396 5.495-2.264 6.014a2.455 2.455 0 0 1-.661.088c-1.71 0-3.404-1.703-4.034-4.051-.351-1.314-.322-2.468.081-3.575.394-1.092 1.106-1.825 2.001-2.074.215-.059.437-.09.662-.09 2.064 0 3.392.843 4.214 3.687zm13.397 5.711V7.536h-3.44v5.078h-5.161V16h5.161v5.078h3.44V16h5.161v-3.386h-5.161z"/>
    </symbol>
    <symbol id="icon-like" viewBox="0 0 32 32">
      <path d="M23.2 1.143c-2.784 0-5.456 1.296-7.2 3.344-1.744-2.048-4.416-3.344-7.2-3.344-4.928 0-8.8 3.872-8.8 8.8 0 6.048 5.44 10.976 13.68 18.464L16 30.503l2.32-2.112C26.56 20.919 32 15.991 32 9.943c0-4.928-3.872-8.8-8.8-8.8zm-7.04 24.88-.16.16-.16-.16C8.224 19.127 3.2 14.567 3.2 9.943c0-3.2 2.4-5.6 5.6-5.6 2.464 0 4.864 1.584 5.712 3.776h2.992c.832-2.192 3.232-3.776 5.696-3.776 3.2 0 5.6 2.4 5.6 5.6 0 4.624-5.024 9.184-12.64 16.08z"/>
    </symbol>
    <symbol id="icon-twitter" viewBox="0 0 32 32">
      <path d="M26.711 10.663c.017.233.017.465.017.697 0 7.1-5.404 15.281-15.28 15.281-3.043 0-5.869-.881-8.248-2.412.432.049.848.067 1.297.067a10.755 10.755 0 0 0 6.668-2.295 5.379 5.379 0 0 1-5.023-3.724c.332.049.665.083 1.015.083.481 0 .965-.067 1.415-.183a5.371 5.371 0 0 1-4.307-5.271v-.067a5.412 5.412 0 0 0 2.427.681 5.37 5.37 0 0 1-1.664-7.181 15.286 15.286 0 0 0 11.074 5.62 6.082 6.082 0 0 1-.133-1.231 5.374 5.374 0 0 1 1.572-3.799 5.369 5.369 0 0 1 3.799-1.572c1.547 0 2.943.648 3.924 1.696a10.601 10.601 0 0 0 3.408-1.297 5.362 5.362 0 0 1-2.361 2.96 10.774 10.774 0 0 0 3.092-.832 11.51 11.51 0 0 1-2.692 2.777z"/>
    </symbol>
    <symbol id="icon-works-1" viewBox="0 0 32 32">
      <path d="M28.445 13.333h-.889V8a.887.887 0 0 0-.889-.889H5.334a.886.886 0 0 1-.889-.728v-.32a.886.886 0 0 1 .889-.728h20.96a.887.887 0 0 0 .629-1.518.888.888 0 0 0-.629-.26H5.334a2.668 2.668 0 0 0-2.667 2.667 2.847 2.847 0 0 0 0 .32v18.284a3.654 3.654 0 0 0 2.275 3.351c.444.18.918.271 1.397.267h20.329a.887.887 0 0 0 .889-.889v-5.333h.889a.887.887 0 0 0 .889-.889v-7.111a.887.887 0 0 0-.889-.889zm-2.667 13.333H6.338a1.876 1.876 0 0 1-1.893-1.84V8.782c.289.084.589.12.889.107h20.444v4.444h-6.222a4.444 4.444 0 0 0-3.143 7.588 4.446 4.446 0 0 0 3.143 1.302h6.222v4.444zm1.778-6.222h-8a2.668 2.668 0 0 1 0-5.334h8v5.333z"/>
      <path d="M20.453 19.111a1.333 1.333 0 1 0 0-2.667 1.333 1.333 0 0 0 0 2.667z"/>
    </symbol>
    <symbol id="icon-works-2" viewBox="0 0 32 32">
      <path d="M5 7a.997.997 0 0 1-1-1 .997.997 0 0 1 1-1h22a.997.997 0 0 1 1 1 .997.997 0 0 1-1 1H5zm4-4a.997.997 0 0 1-1-1 .997.997 0 0 1 1-1h14a.997.997 0 0 1 1 1 .997.997 0 0 1-1 1H9zM0 26a3.004 3.004 0 0 0 3 3h26a3.004 3.004 0 0 0 3-3V12a3.004 3.004 0 0 0-3-3H3a3.004 3.004 0 0 0-3 3v14zm3 1a.997.997 0 0 1-1-1V12a.997.997 0 0 1 1-1h26a.997.997 0 0 1 1 1v14a.997.997 0 0 1-1 1H3z"/>
    </symbol>
    <symbol id="icon-works-3" viewBox="0 0 32 32">
      <path d="m14.755 10.672.245-.007h10a4.334 4.334 0 0 1 4.327 4.087l.007.247v10a4.333 4.333 0 0 1-4.088 4.326l-.245.007h-10a4.333 4.333 0 0 1-4.326-4.088L10.668 25V15a4.333 4.333 0 0 1 4.088-4.326v-.001zM25 12.665H15a2.337 2.337 0 0 0-2.325 2.141l-.008.192v10a2.333 2.333 0 0 0 2.142 2.325l.191.008h10a2.333 2.333 0 0 0 2.325-2.142l.008-.191v-10A2.336 2.336 0 0 0 25 12.665zm-5 2.002a.997.997 0 0 1 1 1v3.331h3.333a.997.997 0 0 1 1 1 .997.997 0 0 1-1 1H21v3.336a.997.997 0 0 1-1 1 .997.997 0 0 1-1-1v-3.336h-3.333a.997.997 0 0 1-1-1 .997.997 0 0 1 1-1H19v-3.331a.997.997 0 0 1 1-1zm.776-9.023.069.236.924 3.451h-2.071l-.784-2.933a2.322 2.322 0 0 0-1.088-1.418 2.327 2.327 0 0 0-1.772-.233L6.395 7.336a2.332 2.332 0 0 0-1.693 2.66l.043.197 2.589 9.659a2.332 2.332 0 0 0 1.997 1.716v2.008a4.34 4.34 0 0 1-3.86-2.971l-.069-.235-2.588-9.66a4.33 4.33 0 0 1 2.827-5.238l.237-.069 9.659-2.588a4.33 4.33 0 0 1 5.238 2.827v.001z"/>
    </symbol>
    <symbol id="icon-works-4" viewBox="0 0 32 32">
      <path stroke-linejoin="round" stroke-width="2" d="M27.333 9.333 16 2.666 4.667 9.333v13.333L16 29.333l11.333-6.667V9.333z"/>
      <path stroke-linecap="round" stroke-linejoin="round" stroke-width="2" d="M16 14.667V20M21.333 12v8M10.667 17.333V20"/>
    </symbol>
    <symbol id="icon-youtube" viewBox="0 0 32 32">
      <path d="M28.987 8.626a3.345 3.345 0 0 0-2.349-2.354c-2.088-.573-10.441-.583-10.441-.583s-8.352-.009-10.441.539a3.416 3.416 0 0 0-2.354 2.371c-.551 2.088-.556 6.419-.556 6.419s-.005 4.352.541 6.419a3.341 3.341 0 0 0 2.351 2.353c2.109.573 10.44.583 10.44.583s8.353.009 10.441-.537a3.356 3.356 0 0 0 2.356-2.35c.552-2.087.556-6.416.556-6.416s.027-4.353-.543-6.441zM13.524 19.029l.007-8 6.943 4.007-6.949 3.993z"/>
    </symbol>
  </defs>
</svg>
